<svg width="162" height="162" viewBox="0 0 162 162" fill="none" xmlns="http://www.w3.org/2000/svg">
<circle cx="81" cy="81" r="81" fill="url(#paint0_linear_1387_122)"/>
<g clip-path="url(#clip0_1387_122)">
<path fill-rule="evenodd" clip-rule="evenodd" d="M78.5 41.875C68.0571 41.875 58.0419 45.9444 50.6577 53.188C43.2734 60.4316 39.125 70.256 39.125 80.5C39.125 90.744 43.2734 100.568 50.6577 107.812C58.0419 115.056 68.0571 119.125 78.5 119.125H98.1875C104.304 119.125 107.362 119.125 109.773 118.146C111.365 117.499 112.813 116.551 114.032 115.355C115.251 114.159 116.218 112.739 116.877 111.177C117.875 108.812 117.875 105.812 117.875 99.8125V80.5C117.875 70.256 113.727 60.4316 106.342 53.188C98.9581 45.9444 88.9429 41.875 78.5 41.875ZM61 76.2083C61 75.0701 61.4609 73.9785 62.2814 73.1737C63.1019 72.3688 64.2147 71.9167 65.375 71.9167H91.625C92.7853 71.9167 93.8981 72.3688 94.7186 73.1737C95.5391 73.9785 96 75.0701 96 76.2083C96 77.3466 95.5391 78.4382 94.7186 79.243C93.8981 80.0478 92.7853 80.5 91.625 80.5H65.375C64.2147 80.5 63.1019 80.0478 62.2814 79.243C61.4609 78.4382 61 77.3466 61 76.2083ZM74.125 93.375C74.125 92.2368 74.5859 91.1452 75.4064 90.3403C76.2269 89.5355 77.3397 89.0833 78.5 89.0833H91.625C92.7853 89.0833 93.8981 89.5355 94.7186 90.3403C95.5391 91.1452 96 92.2368 96 93.375C96 94.5132 95.5391 95.6048 94.7186 96.4097C93.8981 97.2145 92.7853 97.6667 91.625 97.6667H78.5C77.3397 97.6667 76.2269 97.2145 75.4064 96.4097C74.5859 95.6048 74.125 94.5132 74.125 93.375Z" fill="white"/>
</g>
<defs>
<linearGradient id="paint0_linear_1387_122" x1="81" y1="0" x2="81" y2="162" gradientUnits="userSpaceOnUse">
<stop stop-color="#E85D1A"/>
<stop offset="1" stop-color="#FF6D27"/>
</linearGradient>
<clipPath id="clip0_1387_122">
<rect width="100" height="82" fill="white" transform="translate(31 40)"/>
</clipPath>
</defs>
</svg>
