<svg width="36" height="36" viewBox="0 0 36 36" fill="none" xmlns="http://www.w3.org/2000/svg">
<g clip-path="url(#clip0_417_949)">
<path d="M9.80629 1.97323C12.9067 0.388073 16.4004 -0.263762 19.8638 0.0967294C20.309 0.142977 20.7175 0.364171 20.9996 0.711652C21.2817 1.05913 21.4142 1.50444 21.3679 1.9496C21.3217 2.39477 21.1005 2.80333 20.753 3.08541C20.4055 3.36749 19.9602 3.49998 19.515 3.45373C16.7008 3.16103 13.8621 3.69095 11.343 4.97923L10.8435 5.24473C8.37647 6.6293 6.36392 8.69968 5.04979 11.205L4.79779 11.7112C3.49799 14.4395 3.07527 17.5034 3.58777 20.4817C4.10027 23.46 5.52281 26.2064 7.65979 28.3432L8.06479 28.7347C10.1418 30.6574 12.732 31.9361 15.5213 32.4157L16.0793 32.499C18.8845 32.8706 21.7373 32.4204 24.2918 31.203L24.7958 30.951C27.3868 29.5916 29.5104 27.4862 30.8923 24.9071C32.2741 22.328 32.8505 19.3937 32.547 16.4835L34.2255 16.3102L35.904 16.1347C36.2771 19.7162 35.5675 23.3272 33.8668 26.5012C32.1661 29.6751 29.5526 32.266 26.364 33.939L25.743 34.2495C22.5993 35.7477 19.0884 36.3019 15.636 35.8447L14.9475 35.739C11.5163 35.1489 8.32988 33.5764 5.77429 31.212L5.27479 30.7305C2.64404 28.1008 0.892564 24.7208 0.261204 21.0551C-0.370155 17.3894 0.149615 13.6182 1.74904 10.26L2.06179 9.63898C3.67975 6.55555 6.15735 4.00761 9.19429 2.30398L9.80629 1.97323ZM27.4958 0.494979C27.7318 0.259278 28.0323 0.0987973 28.3595 0.0338075C28.6866 -0.0311824 29.0257 0.00223314 29.3339 0.129834C29.642 0.257434 29.9055 0.473496 30.0909 0.750732C30.2764 1.02797 30.3755 1.35394 30.3758 1.68748V5.62498H34.3133L34.5653 5.64748C34.8524 5.69125 35.1234 5.80839 35.352 5.98756C35.5806 6.16673 35.759 6.40186 35.8701 6.67021C35.9812 6.93856 36.0212 7.23105 35.9861 7.51936C35.9511 7.80768 35.8422 8.08207 35.67 8.31598L35.5058 8.50723L28.7558 15.2572C28.4396 15.5738 28.0107 15.7518 27.5633 15.7522H26.7083C26.977 16.7823 27.0608 17.8519 26.9558 18.9112L26.8568 19.5975C26.5483 21.3092 25.7504 22.8949 24.5597 24.1627C23.369 25.4305 21.8364 26.3261 20.1473 26.7412L19.4655 26.8807C17.866 27.1443 16.225 26.9709 14.7158 26.379L14.079 26.1022C12.6193 25.3952 11.3778 24.3068 10.4858 22.9522L10.1258 22.3582C9.22614 20.7333 8.85125 18.8699 9.05254 17.0235L9.15604 16.335C9.45653 14.7418 10.1818 13.2593 11.2553 12.0442L11.7345 11.5402C12.8982 10.4122 14.3449 9.61927 15.9218 9.24523L16.0928 9.21148C16.5233 9.15221 16.9601 9.26133 17.3122 9.51611C17.6643 9.77088 17.9045 10.1517 17.9828 10.5792C18.0611 11.0066 17.9715 11.4479 17.7326 11.8109C17.4936 12.1739 17.1239 12.4308 16.7003 12.528L16.284 12.6427C15.4586 12.9075 14.7055 13.3595 14.0835 13.9635L13.7843 14.2762C13.1093 15.0367 12.6593 15.966 12.4725 16.9582L12.4073 17.3902C12.2813 18.5443 12.5155 19.7091 13.0778 20.7247L13.3028 21.096C13.8605 21.9417 14.6364 22.6212 15.5483 23.0625L15.9465 23.238C16.8901 23.6087 17.9162 23.7175 18.9165 23.553L19.3418 23.463C20.3974 23.2037 21.3554 22.6441 22.0997 21.8519C22.844 21.0597 23.3428 20.0687 23.5358 18.999L23.5965 18.5715C23.694 17.6085 23.5413 16.6367 23.1533 15.75H22.6358L19.1933 19.1925C19.0388 19.3583 18.8525 19.4913 18.6455 19.5835C18.4385 19.6757 18.215 19.7253 17.9885 19.7293C17.7619 19.7333 17.5368 19.6916 17.3267 19.6068C17.1166 19.5219 16.9257 19.3956 16.7655 19.2353C16.6052 19.0751 16.4789 18.8842 16.394 18.6741C16.3091 18.4639 16.2675 18.2389 16.2715 18.0123C16.2755 17.7857 16.3251 17.5623 16.4173 17.3553C16.5095 17.1483 16.6425 16.962 16.8083 16.8075L20.2508 13.365V8.43748C20.2508 7.98973 20.4285 7.55998 20.7458 7.24498L27.4958 0.494979ZM34.05 14.6317C34.2705 14.6087 34.4933 14.6292 34.7058 14.6923C34.9182 14.7553 35.1162 14.8596 35.2884 14.9992C35.4605 15.1388 35.6035 15.3109 35.7091 15.5057C35.8148 15.7006 35.881 15.9143 35.904 16.1347L32.547 16.4835C32.5011 16.0387 32.6336 15.5938 32.9154 15.2466C33.1972 14.8994 33.6053 14.6783 34.05 14.6317ZM23.6258 9.13723V12.375H26.8658L30.2408 8.99998H27.0008V5.75998L23.6258 9.13723Z" fill="black"/>
</g>
<defs>
<clipPath id="clip0_417_949">
<rect width="36" height="36" fill="white"/>
</clipPath>
</defs>
</svg>
