<svg width="44" height="44" viewBox="0 0 44 44" fill="none" xmlns="http://www.w3.org/2000/svg">
<path d="M31.2578 37.18C29.4612 38.9217 27.4995 38.6467 25.6112 37.8217C23.6128 36.9783 21.7795 36.9417 19.6712 37.8217C17.0312 38.9583 15.6378 38.6283 14.0612 37.18C5.11449 27.9583 6.43449 13.915 16.5912 13.4017C19.0662 13.53 20.7895 14.7583 22.2378 14.8683C24.4012 14.4283 26.4728 13.1633 28.7828 13.3283C31.5512 13.5483 33.6412 14.6483 35.0162 16.6283C29.2962 20.0567 30.6528 27.5917 35.8962 29.7C34.8512 32.45 33.4945 35.1817 31.2395 37.1983L31.2578 37.18ZM22.0545 13.2917C21.7795 9.20333 25.0978 5.83 28.9112 5.5C29.4428 10.23 24.6212 13.75 22.0545 13.2917Z" fill="black"/>
</svg>
