<svg width="34" height="34" viewBox="0 0 34 34" fill="none" xmlns="http://www.w3.org/2000/svg">
<path opacity="0.987" fill-rule="evenodd" clip-rule="evenodd" d="M15.3203 2.25458C16.8609 2.08246 17.7725 2.08246 19.4279 2.25458C22.3581 2.68828 25.0745 4.04274 27.1841 6.12208C25.7585 7.46962 24.3516 8.83683 22.9639 10.2233C20.3062 7.97083 17.3397 7.45092 14.0644 8.66358C11.6617 9.76858 9.98863 11.5592 9.04513 14.0356C7.50331 12.8877 5.98158 11.7131 4.48063 10.5123C4.37631 10.4574 4.25718 10.4373 4.14062 10.455C6.52487 5.85787 10.2507 3.12371 15.3181 2.25246" fill="#F44336"/>
<path opacity="0.997" fill-rule="evenodd" clip-rule="evenodd" d="M4.13579 10.455C4.2562 10.4366 4.37024 10.4557 4.47791 10.5124C5.97887 11.7132 7.5006 12.8878 9.04241 14.0356C8.79979 15.0005 8.64685 15.9857 8.58554 16.9788C8.63795 17.9393 8.79024 18.8821 9.04241 19.8071L4.25054 23.6215C2.16379 19.261 2.12554 14.8722 4.13579 10.455Z" fill="#FFC107"/>
<path opacity="0.999" fill-rule="evenodd" clip-rule="evenodd" d="M26.9561 28.2413C25.4641 26.9255 23.9021 25.6912 22.2769 24.5438C23.9061 23.3935 24.8949 21.8153 25.2434 19.8093H17.2598V14.2652C21.8639 14.2269 26.466 14.2659 31.0659 14.3821C31.9386 19.1208 30.9306 23.3935 28.042 27.2001C27.6985 27.5652 27.3347 27.9127 26.9561 28.2413Z" fill="#448AFF"/>
<path opacity="0.993" fill-rule="evenodd" clip-rule="evenodd" d="M9.04188 19.8093C10.7844 24.1401 13.979 26.1617 18.6256 25.8741C19.93 25.7231 21.1806 25.2674 22.2764 24.5438C23.9027 25.6942 25.4625 26.9267 26.9556 28.2413C24.5898 30.3673 21.5732 31.6287 18.3982 31.8198C17.6769 31.8775 16.9521 31.8775 16.2308 31.8198C10.8219 31.1823 6.82833 28.4496 4.25 23.6216L9.04188 19.8093Z" fill="#43A047"/>
</svg>
