<svg width="20" height="20" viewBox="0 0 20 20" fill="none" xmlns="http://www.w3.org/2000/svg">
<path d="M18.9869 15.3937L13.1739 9.58063L18.9869 3.76757C19.0983 3.65482 19.1608 3.50272 19.1608 3.34423C19.1608 3.18574 19.0983 3.03363 18.9869 2.92088L16.2409 0.174829C16.1286 0.0625736 15.9763 -0.000488281 15.8175 -0.000488281C15.6587 -0.000488281 15.5065 0.0625736 15.3942 0.174829L9.58112 5.98789L3.76806 0.174829C3.65577 0.0625736 3.50349 -0.000488281 3.34471 -0.000488281C3.18594 -0.000488281 3.03366 0.0625736 2.92137 0.174829L0.175318 2.92088C0.0630618 3.03317 0 3.18545 0 3.34423C0 3.503 0.0630618 3.65528 0.175318 3.76757L5.98837 9.58063L0.175318 15.3937C0.0630618 15.506 0 15.6583 0 15.817C0 15.9758 0.0630618 16.1281 0.175318 16.2404L2.92137 18.9864C3.03366 19.0987 3.18594 19.1617 3.34471 19.1617C3.50349 19.1617 3.65577 19.0987 3.76806 18.9864L9.58112 13.1734L15.3942 18.9864C15.5065 19.0987 15.6587 19.1617 15.8175 19.1617C15.9763 19.1617 16.1286 19.0987 16.2409 18.9864L18.9869 16.2404C19.0992 16.1281 19.1622 15.9758 19.1622 15.817C19.1622 15.6583 19.0992 15.506 18.9869 15.3937Z" fill="#E85D1A"/>
</svg>
