<svg width="26" height="26" viewBox="0 0 26 26" fill="none" xmlns="http://www.w3.org/2000/svg">
<path d="M7.32855 0H17.9423C21.9856 0 25.2708 3.28521 25.2708 7.32855V17.9423C25.2708 19.886 24.4987 21.75 23.1244 23.1244C21.75 24.4987 19.886 25.2708 17.9423 25.2708H7.32855C3.28521 25.2708 0 21.9856 0 17.9423V7.32855C0 5.38489 0.772112 3.52085 2.14648 2.14648C3.52085 0.772112 5.38489 0 7.32855 0ZM7.07584 2.52708C5.86943 2.52708 4.71244 3.00633 3.85938 3.85938C3.00633 4.71244 2.52708 5.86943 2.52708 7.07584V18.195C2.52708 20.7095 4.56139 22.7438 7.07584 22.7438H18.195C19.4014 22.7438 20.5584 22.2645 21.4115 21.4115C22.2645 20.5584 22.7438 19.4014 22.7438 18.195V7.07584C22.7438 4.56139 20.7095 2.52708 18.195 2.52708H7.07584ZM19.269 4.4224C19.6879 4.4224 20.0896 4.5888 20.3858 4.885C20.682 5.1812 20.8484 5.58293 20.8484 6.00183C20.8484 6.42072 20.682 6.82245 20.3858 7.11865C20.0896 7.41485 19.6879 7.58125 19.269 7.58125C18.8501 7.58125 18.4484 7.41485 18.1522 7.11865C17.856 6.82245 17.6896 6.42072 17.6896 6.00183C17.6896 5.58293 17.856 5.1812 18.1522 4.885C18.4484 4.5888 18.8501 4.4224 19.269 4.4224ZM12.6354 6.31771C14.311 6.31771 15.9179 6.98333 17.1027 8.16813C18.2875 9.35293 18.9531 10.9599 18.9531 12.6354C18.9531 14.311 18.2875 15.9179 17.1027 17.1027C15.9179 18.2875 14.311 18.9531 12.6354 18.9531C10.9599 18.9531 9.35293 18.2875 8.16813 17.1027C6.98333 15.9179 6.31771 14.311 6.31771 12.6354C6.31771 10.9599 6.98333 9.35293 8.16813 8.16813C9.35293 6.98333 10.9599 6.31771 12.6354 6.31771ZM12.6354 8.8448C11.6301 8.8448 10.6659 9.24416 9.95504 9.95504C9.24416 10.6659 8.8448 11.6301 8.8448 12.6354C8.8448 13.6408 9.24416 14.6049 9.95504 15.3158C10.6659 16.0267 11.6301 16.426 12.6354 16.426C13.6408 16.426 14.6049 16.0267 15.3158 15.3158C16.0267 14.6049 16.426 13.6408 16.426 12.6354C16.426 11.6301 16.0267 10.6659 15.3158 9.95504C14.6049 9.24416 13.6408 8.8448 12.6354 8.8448Z" fill="white"/>
</svg>
