<svg width="23" height="23" viewBox="0 0 23 23" fill="none" xmlns="http://www.w3.org/2000/svg">
<path d="M20.2167 0C20.8869 0 21.5297 0.266246 22.0036 0.740166C22.4775 1.21409 22.7438 1.85686 22.7438 2.52708V20.2167C22.7438 20.8869 22.4775 21.5297 22.0036 22.0036C21.5297 22.4775 20.8869 22.7438 20.2167 22.7438H2.52708C1.85686 22.7438 1.21409 22.4775 0.740166 22.0036C0.266246 21.5297 0 20.8869 0 20.2167V2.52708C0 1.85686 0.266246 1.21409 0.740166 0.740166C1.21409 0.266246 1.85686 0 2.52708 0H20.2167ZM19.5849 19.5849V12.8881C19.5849 11.7957 19.1509 10.7479 18.3784 9.97545C17.6059 9.20296 16.5582 8.76898 15.4658 8.76898C14.3917 8.76898 13.1408 9.42602 12.5343 10.4116V9.00906H9.00906V19.5849H12.5343V13.3556C12.5343 12.3827 13.3177 11.5867 14.2907 11.5867C14.7598 11.5867 15.2098 11.7731 15.5415 12.1048C15.8732 12.4365 16.0596 12.8865 16.0596 13.3556V19.5849H19.5849ZM4.90254 7.0253C5.46553 7.0253 6.00546 6.80165 6.40356 6.40356C6.80165 6.00546 7.0253 5.46553 7.0253 4.90254C7.0253 3.72745 6.07764 2.76716 4.90254 2.76716C4.3362 2.76716 3.79306 2.99213 3.3926 3.3926C2.99213 3.79306 2.76716 4.3362 2.76716 4.90254C2.76716 6.07764 3.72745 7.0253 4.90254 7.0253ZM6.65887 19.5849V9.00906H3.15886V19.5849H6.65887Z" fill="white"/>
</svg>
