<svg width="41" height="41" viewBox="0 0 41 41" fill="none" xmlns="http://www.w3.org/2000/svg">
<path d="M13.2609 17.4891C11.2536 15.4818 10.25 13.0687 10.25 10.25C10.25 7.43125 11.2536 5.01823 13.2609 3.01094C15.2682 1.00365 17.6812 0 20.5 0C23.3187 0 25.7318 1.00365 27.7391 3.01094C29.7464 5.01823 30.75 7.43125 30.75 10.25C30.75 13.0687 29.7464 15.4818 27.7391 17.4891C25.7318 19.4964 23.3187 20.5 20.5 20.5C17.6812 20.5 15.2682 19.4964 13.2609 17.4891ZM0 35.875V33.825C0 32.3729 0.374125 31.0387 1.12238 29.8224C1.87063 28.606 2.86317 27.6767 4.1 27.0344C6.74792 25.7104 9.43854 24.7179 12.1719 24.0567C14.9052 23.3956 17.6812 23.0642 20.5 23.0625C23.3187 23.0608 26.0948 23.3922 28.8281 24.0567C31.5615 24.7213 34.2521 25.7138 36.9 27.0344C38.1385 27.675 39.1319 28.6043 39.8802 29.8224C40.6284 31.0404 41.0017 32.3746 41 33.825V35.875C41 37.2844 40.4986 38.4913 39.4958 39.4958C38.493 40.5003 37.2861 41.0017 35.875 41H5.125C3.71562 41 2.50954 40.4986 1.50675 39.4958C0.503958 38.493 0.00170833 37.2861 0 35.875Z" fill="#E85D1A"/>
</svg>
