<svg width="41" height="41" viewBox="0 0 41 41" fill="none" xmlns="http://www.w3.org/2000/svg">
<g clip-path="url(#clip0_29_197)">
<path d="M17.9375 5.12497C14.5394 5.12497 11.2805 6.47486 8.87769 8.87767C6.47489 11.2805 5.125 14.5394 5.125 17.9375C5.125 21.3356 6.47489 24.5945 8.87769 26.9973C11.2805 29.4001 14.5394 30.75 17.9375 30.75C21.3356 30.75 24.5945 29.4001 26.9973 26.9973C29.4001 24.5945 30.75 21.3356 30.75 17.9375C30.75 14.5394 29.4001 11.2805 26.9973 8.87767C24.5945 6.47486 21.3356 5.12497 17.9375 5.12497ZM5.65241e-07 17.9375C5.40635e-06 15.0963 0.674899 12.2958 1.96911 9.76656C3.26331 7.2373 5.13981 5.05165 7.44408 3.38958C9.74834 1.72751 12.4145 0.636576 15.2229 0.206604C18.0313 -0.223368 20.9017 0.0199251 23.5977 0.916449C26.2937 1.81297 28.7381 3.33708 30.7298 5.36327C32.7214 7.38946 34.2033 9.85977 35.0533 12.5708C35.9034 15.2818 36.0973 18.1559 35.6191 20.9565C35.1409 23.7571 34.0043 26.4041 32.3029 28.6795L40.2492 36.6232L36.6258 40.2492L28.6821 32.3054C26.0158 34.2999 22.8471 35.5129 19.5305 35.8086C16.214 36.1043 12.8806 35.4711 9.90357 33.9797C6.92653 32.4884 4.42333 30.1979 2.67423 27.3646C0.92513 24.5314 -0.000835183 21.2672 5.65241e-07 17.9375Z" fill="white"/>
</g>
<defs>
<clipPath id="clip0_29_197">
<rect width="41" height="41" fill="white"/>
</clipPath>
</defs>
</svg>
