<svg width="58" height="58" viewBox="0 0 58 58" fill="none" xmlns="http://www.w3.org/2000/svg">
<rect width="58" height="58" rx="14" fill="#FDE8DA"/>
<g clip-path="url(#clip0_417_927)">
<path d="M27.5 19.1999C25.5109 19.1999 23.6032 19.9901 22.1967 21.3966C20.7902 22.8032 20 24.7108 20 26.6999C20 28.6891 20.7902 30.5967 22.1967 32.0032C23.6032 33.4098 25.5109 34.1999 27.5 34.1999C29.4891 34.1999 31.3968 33.4098 32.8033 32.0032C34.2098 30.5967 35 28.6891 35 26.6999C35 24.7108 34.2098 22.8032 32.8033 21.3966C31.3968 19.9901 29.4891 19.1999 27.5 19.1999ZM17 26.6999C17 25.0368 17.3951 23.3975 18.1526 21.917C18.9102 20.4364 20.0087 19.157 21.3575 18.1841C22.7063 17.2112 24.267 16.5726 25.911 16.3209C27.5549 16.0692 29.2351 16.2116 30.8133 16.7364C32.3914 17.2612 33.8223 18.1534 34.9882 19.3394C36.154 20.5255 37.0214 21.9715 37.519 23.5585C38.0166 25.1454 38.1301 26.8278 37.8502 28.4672C37.5703 30.1066 36.905 31.656 35.909 32.9879L40.5605 37.6379L38.4395 39.7604L33.7895 35.1104C32.2288 36.2779 30.3739 36.988 28.4325 37.1611C26.4911 37.3342 24.5399 36.9635 22.7972 36.0905C21.0546 35.2176 19.5893 33.8768 18.5654 32.2183C17.5415 30.5598 16.9995 28.649 17 26.6999Z" fill="black"/>
</g>
<defs>
<clipPath id="clip0_417_927">
<rect width="24" height="24" fill="white" transform="translate(17 16.2)"/>
</clipPath>
</defs>
</svg>
