<svg width="32" height="32" viewBox="0 0 32 32" fill="none" xmlns="http://www.w3.org/2000/svg">
<path d="M10.35 13.65C8.78333 12.0833 8 10.2 8 8C8 5.8 8.78333 3.91667 10.35 2.35C11.9167 0.783334 13.8 0 16 0C18.2 0 20.0833 0.783334 21.65 2.35C23.2167 3.91667 24 5.8 24 8C24 10.2 23.2167 12.0833 21.65 13.65C20.0833 15.2167 18.2 16 16 16C13.8 16 11.9167 15.2167 10.35 13.65ZM0 28V26.4C0 25.2667 0.292 24.2253 0.876 23.276C1.46 22.3267 2.23467 21.6013 3.2 21.1C5.26667 20.0667 7.36667 19.292 9.5 18.776C11.6333 18.26 13.8 18.0013 16 18C18.2 17.9987 20.3667 18.2573 22.5 18.776C24.6333 19.2947 26.7333 20.0693 28.8 21.1C29.7667 21.6 30.542 22.3253 31.126 23.276C31.71 24.2267 32.0013 25.268 32 26.4V28C32 29.1 31.6087 30.042 30.826 30.826C30.0433 31.61 29.1013 32.0013 28 32H4C2.9 32 1.95867 31.6087 1.176 30.826C0.393333 30.0433 0.00133333 29.1013 0 28Z" fill="white"/>
</svg>
