<svg width="33" height="33" viewBox="0 0 33 33" fill="none" xmlns="http://www.w3.org/2000/svg">
<path fill-rule="evenodd" clip-rule="evenodd" d="M16.125 32.25C18.2426 32.25 20.3394 31.8329 22.2958 31.0226C24.2521 30.2122 26.0298 29.0244 27.5271 27.5271C29.0244 26.0298 30.2122 24.2521 31.0226 22.2958C31.8329 20.3394 32.25 18.2426 32.25 16.125C32.25 14.0074 31.8329 11.9106 31.0226 9.95423C30.2122 7.99785 29.0244 6.22025 27.5271 4.7229C26.0298 3.22556 24.2521 2.0378 22.2958 1.22744C20.3394 0.417085 18.2426 -3.15542e-08 16.125 0C11.8484 6.37265e-08 7.74693 1.69888 4.7229 4.7229C1.69888 7.74693 0 11.8484 0 16.125C0 20.4016 1.69888 24.5031 4.7229 27.5271C7.74693 30.5511 11.8484 32.25 16.125 32.25ZM15.7093 22.6467L24.6677 11.8967L21.9157 9.60333L14.2115 18.8465L10.225 14.8583L7.69163 17.3917L13.0666 22.7667L14.4534 24.1535L15.7093 22.6467Z" fill="#1A8A5A"/>
</svg>
