<svg width="27" height="26" viewBox="0 0 27 26" fill="none" xmlns="http://www.w3.org/2000/svg">
<path d="M1.26562 0C1.60129 0 1.92321 0.126152 2.16056 0.350704C2.39791 0.575256 2.53125 0.879814 2.53125 1.19738V21.1537C2.53125 22.2553 3.47625 23.1493 4.64062 23.1493H25.7344C26.07 23.1493 26.392 23.2755 26.6293 23.5C26.8667 23.7246 27 24.0291 27 24.3467C27 24.6643 26.8667 24.9688 26.6293 25.1934C26.392 25.4179 26.07 25.5441 25.7344 25.5441H4.64062C3.40985 25.5441 2.22949 25.0815 1.35921 24.2582C0.488922 23.4348 0 22.3181 0 21.1537V1.19738C0 0.879814 0.133342 0.575256 0.370693 0.350704C0.608044 0.126152 0.92996 0 1.26562 0ZM23.625 5.58776V21.5528H4.64062C4.52874 21.5528 4.42143 21.5108 4.34231 21.4359C4.2632 21.3611 4.21875 21.2595 4.21875 21.1537V9.6812L8.09494 8.05277C8.21581 8.00173 8.34769 7.97832 8.4799 7.98442C8.61211 7.99052 8.74095 8.02597 8.856 8.08789L14.2644 11.0111L22.2547 4.96513C22.3788 4.8714 22.5283 4.81269 22.6861 4.79574C22.8438 4.7788 23.0034 4.80431 23.1466 4.86934C23.2897 4.93437 23.4105 5.03629 23.4951 5.16337C23.5798 5.29046 23.6248 5.43756 23.625 5.58776Z" fill="#1A8A5A"/>
</svg>
