<svg width="29" height="23" viewBox="0 0 29 23" fill="none" xmlns="http://www.w3.org/2000/svg">
<path d="M12.2668 16.2414C12.8716 16.8298 13.6338 17.1066 14.5532 17.0718C15.4726 17.0369 16.1379 16.7131 16.5493 16.1001L24.6787 4.23688L12.4845 12.1457C11.8555 12.5694 11.5109 13.2106 11.4509 14.0693C11.3909 14.9279 11.6629 15.652 12.2668 16.2414ZM4.50024 22.5967C3.96795 22.5967 3.47825 22.4846 3.03113 22.2605C2.58401 22.0365 2.22689 21.7013 1.95978 21.255C1.33071 20.1487 0.846819 19.0014 0.508091 17.8132C0.169364 16.625 0 15.3949 0 14.1229C0 12.1692 0.381311 10.3333 1.14393 8.61498C1.90655 6.89669 2.94064 5.40202 4.24619 4.13095C5.55174 2.85989 7.08812 1.85387 8.8553 1.11289C10.6225 0.371904 12.5097 0.000941528 14.5169 0C16.5009 0 18.3639 0.364842 20.1059 1.09453C21.8479 1.82421 23.3722 2.81893 24.6787 4.0787C25.9852 5.33846 27.0256 6.8096 27.7998 8.49211C28.5741 10.1746 28.9733 11.9809 28.9975 13.9111C29.0217 15.2057 28.8707 16.4711 28.5446 17.7073C28.2184 18.9435 27.7161 20.1261 27.0377 21.255C26.7716 21.7022 26.4149 22.0379 25.9678 22.262C25.5207 22.486 25.03 22.5976 24.4958 22.5967H4.50024Z" fill="#1A8A5A"/>
</svg>
